<?xml version="1.0" standalone="no"?><!DOCTYPE svg PUBLIC "-//W3C//DTD SVG 1.1//EN" "http://www.w3.org/Graphics/SVG/1.1/DTD/svg11.dtd"><svg t="1586248233737" class="icon" viewBox="0 0 1024 1024" version="1.1" xmlns="http://www.w3.org/2000/svg" p-id="2896" xmlns:xlink="http://www.w3.org/1999/xlink" width="200" height="200"><defs><style type="text/css"></style></defs><path d="M933.647059 22.588235A67.764706 67.764706 0 0 1 1001.411765 90.352941v843.294118A67.764706 67.764706 0 0 1 933.647059 1001.411765H90.352941A67.764706 67.764706 0 0 1 22.588235 933.647059V90.352941A67.764706 67.764706 0 0 1 90.352941 22.588235h843.294118z m0 15.058824H90.352941A52.705882 52.705882 0 0 0 37.647059 90.352941v843.294118c0 29.093647 23.612235 52.705882 52.705882 52.705882h843.294118A52.705882 52.705882 0 0 0 986.352941 933.647059V90.352941A52.705882 52.705882 0 0 0 933.647059 37.647059z" fill="#DAAE71" opacity=".6" p-id="2897"></path><path d="M512 301.176471a30.117647 30.117647 0 0 1 30.117647 30.117647v150.588235h150.588235a30.117647 30.117647 0 0 1 0 60.235294h-150.588235v150.588235a30.117647 30.117647 0 0 1-60.235294 0v-150.588235h-150.588235a30.117647 30.117647 0 0 1 0-60.235294h150.588235v-150.588235a30.117647 30.117647 0 0 1 30.117647-30.117647z" fill="#FFE3BD" p-id="2898"></path></svg>